<svg width="84" height="42" viewBox="0 0 84 42" fill="none" xmlns="http://www.w3.org/2000/svg">
<g clip-path="url(#clip0_236_47)">
<path d="M42 0.000476837H0V42.0001H42V0.000476837Z" fill="#001A58"/>
<path d="M83.9997 0H42V42H83.9997V0Z" fill="#003976"/>
<path d="M83.7662 0.233444H42.2331V41.7666H83.7662V0.233444Z" fill="white" stroke="#001A58"/>
<path d="M30.9847 10.3123C27.4472 10.3123 23.5682 12.2029 23.2811 15.2354C23.0674 17.6245 24.6198 18.8193 25.7782 19.9773C27.6312 21.8304 29.4174 23.1533 29.4174 24.5425C29.4174 26.6813 27.3527 29.0102 24.6729 29.0102C21.6964 29.0102 20.1028 27.1861 19.3959 26.3596L14.0843 20.1551C13.8782 19.9144 13.8848 19.8028 14.0843 19.6201L25.0308 10.6004H22.6012L11.5487 19.5355L14.4761 10.6001H12.1176L5.77451 29.9627H8.13264L11.281 20.3527L16.8632 26.8957C18.6119 28.7122 20.7142 30.4599 24.1378 30.4599C27.6293 30.4599 29.7125 29.1945 31.3146 27.1788C32.9 25.1835 32.5576 22.6101 31.1428 21.2618C29.9548 20.1298 28.8817 19.1381 28.0481 18.2899C27.3039 17.5359 25.9224 16.2939 25.9224 14.75C25.9224 12.4558 28.8333 11.5599 31.0921 11.5599C32.2846 11.5599 34.3198 11.9919 35.6733 12.9102L36.1698 11.6152C34.5693 10.8984 32.5902 10.3123 30.9847 10.3123Z" fill="white"/>
<path d="M61.0834 10.1414L55.5338 12.8134C55.2852 12.9325 55.1811 13.2305 55.301 13.4791C55.4198 13.727 55.7178 13.8318 55.9664 13.7122L61.5157 11.041C61.764 10.9208 61.868 10.6228 61.7482 10.3749C61.6296 10.1263 61.3317 10.0219 61.0834 10.1414Z" fill="#001A58"/>
<path d="M53.6188 15.3279L52.2481 21.3312C52.1865 21.5992 52.3545 21.8679 52.6235 21.9285C52.8918 21.9901 53.1595 21.8215 53.2207 21.5535L54.5918 15.5495C54.6533 15.2808 54.4851 15.0135 54.2167 14.9522C53.9477 14.8913 53.6801 15.0586 53.6188 15.3279Z" fill="#001A58"/>
<path d="M53.203 23.9175C52.9873 24.0891 52.9517 24.4029 53.1236 24.6189L56.9621 29.4333C57.134 29.6486 57.4481 29.6842 57.6637 29.5123C57.8791 29.3407 57.9143 29.0266 57.7428 28.8113L53.9036 23.9962C53.7317 23.7809 53.4186 23.7453 53.203 23.9175Z" fill="#001A58"/>
<path d="M59.4207 30.2185C59.4207 30.4944 59.6442 30.7177 59.9195 30.7177L66.0772 30.7183C66.3525 30.7183 66.5761 30.4948 66.5761 30.2189C66.5761 29.9439 66.3525 29.72 66.0772 29.72L59.9195 29.7194C59.6442 29.7197 59.4207 29.9433 59.4207 30.2185Z" fill="#001A58"/>
<path d="M71.8063 23.8961L67.9662 28.7109C67.7946 28.9262 67.8295 29.2396 68.0446 29.4118C68.2599 29.5834 68.574 29.5482 68.7462 29.3328L72.586 24.5188C72.7575 24.3034 72.7223 23.9896 72.507 23.8178C72.292 23.6459 71.9779 23.6811 71.8063 23.8961Z" fill="#001A58"/>
<path d="M71.4421 14.9759C71.1738 15.0375 71.0055 15.3048 71.0668 15.5729L72.4365 21.5769C72.4977 21.8452 72.7648 22.0131 73.0341 21.9522C73.3021 21.8913 73.4704 21.6239 73.4091 21.3549L72.0401 15.3516C71.9782 15.0829 71.7102 14.9147 71.4421 14.9759Z" fill="#001A58"/>
<path d="M60.7469 12.9059C60.7992 12.9138 61.7702 13.0547 62.9137 13.0547C64.0569 13.0547 65.0269 12.9138 65.0684 12.9079C65.2827 12.8776 65.5995 12.8084 65.8481 12.5602C65.93 12.4785 65.9933 12.3843 66.0479 12.2862L65.1458 11.8516C65.1448 11.8526 65.1438 11.8542 65.1425 11.8549C65.1276 11.8697 65.0789 11.899 64.9261 11.9204C64.914 11.9221 63.9812 12.0574 62.9141 12.0574C61.8473 12.0574 60.9135 11.9221 60.9039 11.9207C60.7189 11.8888 60.7021 11.8723 60.6837 11.8542C60.6698 11.8404 60.6501 11.8137 60.6369 11.7778L59.7384 12.2102C59.798 12.3386 59.8757 12.4571 59.9784 12.5598C60.2178 12.7992 60.4789 12.8604 60.7469 12.9059Z" fill="#001A58"/>
<path d="M60.6231 9.60508C60.6231 9.52968 60.661 9.48095 60.6843 9.45823C60.6995 9.44309 60.7479 9.41411 60.901 9.39238C60.9132 9.39106 61.8463 9.25607 62.9134 9.25607C63.9802 9.25607 64.9136 9.39106 64.9232 9.39205C65.1086 9.42432 65.1257 9.44045 65.1435 9.45889C65.1659 9.48095 65.2037 9.53001 65.2037 9.60508V10.1441L66.2017 10.6248V9.60508C66.2017 9.28373 66.0763 8.98081 65.8487 8.75264C65.6087 8.51392 65.3483 8.45235 65.0802 8.40659C65.0272 8.39868 64.0572 8.25809 62.9137 8.25809C61.7699 8.25809 60.7996 8.39901 60.7588 8.40461C60.5451 8.4349 60.2277 8.50405 59.9794 8.75264C59.7512 8.98048 59.6258 9.28373 59.6258 9.60508V10.5296L60.6234 10.0496L60.6231 9.60508Z" fill="#001A58"/>
<path d="M52.8543 15.6417C52.795 15.5946 52.7799 15.534 52.7766 15.5014C52.7743 15.481 52.7822 15.4247 52.8609 15.291C52.8671 15.2808 53.3436 14.4672 54.0083 13.6329C54.6738 12.7985 55.3612 12.1532 55.3682 12.1463C55.5091 12.0215 55.5325 12.0185 55.5578 12.0156C55.5891 12.0123 55.6507 12.0133 55.7099 12.0603C55.7099 12.0603 55.8222 12.1496 55.9868 12.2813L56.9841 11.8006C56.6378 11.524 56.3316 11.28 56.3316 11.28C56.0803 11.0795 55.7659 10.9889 55.4452 11.0252C55.1097 11.0634 54.8993 11.2286 54.6961 11.4101C54.6573 11.446 53.9418 12.117 53.2286 13.0109C52.5161 13.9048 52.0206 14.7514 52.0002 14.7873C51.8899 14.9736 51.7467 15.2653 51.7858 15.6137C51.8221 15.935 51.9811 16.2215 52.2326 16.4223L52.9491 16.9933L53.1957 15.9136L52.8543 15.6417Z" fill="#001A58"/>
<path d="M54.762 17.988C55.0982 17.9501 55.3086 17.7838 55.5114 17.6031C55.5502 17.5672 56.2657 16.8958 56.9786 16.0019C57.6917 15.1076 58.1873 14.2611 58.2073 14.2252C58.3051 14.0599 58.4286 13.8123 58.4286 13.516C58.4286 13.4781 58.4266 13.4393 58.422 13.3994C58.4023 13.2269 58.3456 13.0662 58.26 12.9223L57.3437 13.3639C57.347 13.3665 57.3532 13.3714 57.3532 13.3714C57.4122 13.4175 57.4273 13.4785 57.4309 13.5107C57.4326 13.5311 57.4247 13.5874 57.3463 13.7214C57.3397 13.7317 56.864 14.5459 56.1992 15.3796C55.5338 16.2136 54.846 16.8596 54.839 16.8662C54.6984 16.9913 54.6751 16.9943 54.6504 16.9969C54.6283 16.9992 54.5928 16.9979 54.5542 16.9837L54.332 17.9567C54.4709 17.9912 54.6161 18.0044 54.762 17.988Z" fill="#001A58"/>
<path d="M52.8102 25.3936C52.7371 25.4107 52.6801 25.3837 52.6524 25.3666C52.635 25.3561 52.5952 25.3146 52.5405 25.1704C52.5352 25.1588 52.1964 24.2787 51.9597 23.2386C51.7216 22.1975 51.6459 21.2575 51.6446 21.2483C51.642 21.2008 51.641 21.1643 51.641 21.1353C51.641 21.0504 51.6505 21.0342 51.6607 21.0188C51.6775 20.9918 51.717 20.9437 51.7901 20.9272C51.7901 20.9272 51.8994 20.9025 52.0641 20.8653L52.3103 19.7857L51.5685 19.9546C51.2554 20.0261 50.9874 20.2154 50.8162 20.4887C50.6364 20.7745 50.6344 21.0428 50.6492 21.3144C50.6539 21.3681 50.7322 22.346 50.9861 23.4609C51.2406 24.5754 51.5942 25.4911 51.609 25.5293C51.6857 25.7311 51.8244 26.0251 52.1217 26.2118C52.3953 26.3837 52.719 26.4383 53.0327 26.3669L53.983 26.1499L53.2925 25.2836L52.8102 25.3936Z" fill="#001A58"/>
<path d="M55.8337 25.3646C56.0132 25.0792 56.0155 24.8108 56.0007 24.5382C55.996 24.4855 55.9177 23.5076 55.6635 22.3921C55.409 21.2776 55.0554 20.3629 55.0409 20.324C54.9635 20.1225 54.8252 19.8282 54.5282 19.6418C54.3619 19.5371 54.1772 19.4818 53.9873 19.466L53.7564 20.4781C53.8091 20.4666 53.8401 20.459 53.8401 20.459C53.9135 20.4426 53.9698 20.4683 53.9975 20.486C54.0146 20.4972 54.0541 20.5384 54.1091 20.6833C54.1143 20.6945 54.4532 21.5746 54.6905 22.6143C54.9279 23.6551 55.004 24.5955 55.0047 24.6047C55.0145 24.7927 55.0017 24.8135 54.9895 24.8339C54.9836 24.8424 54.9707 24.8553 54.9599 24.8671C55.1499 25.1058 55.3612 25.3699 55.5812 25.6461C55.6777 25.5655 55.7652 25.4746 55.8337 25.3646Z" fill="#001A58"/>
<path d="M62.1061 28.9529C61.9938 28.6345 61.7857 28.4659 61.5638 28.3079C61.5193 28.2779 60.7061 27.73 59.6762 27.2338C58.6462 26.7376 57.7112 26.4436 57.6713 26.4311C57.4649 26.3652 57.1485 26.2905 56.8182 26.4061C56.6572 26.4617 56.514 26.5513 56.3935 26.6642C56.6147 26.9428 56.8294 27.2118 57.026 27.4584C57.026 27.4577 57.0276 27.4534 57.0276 27.4534C57.0612 27.3856 57.1165 27.3583 57.1465 27.3481C57.1669 27.3408 57.2235 27.3356 57.372 27.3826C57.3826 27.3856 58.2821 27.6691 59.2438 28.132C60.2049 28.595 60.9873 29.1218 60.9952 29.1267C61.1483 29.2357 61.1565 29.2591 61.1641 29.2821C61.1746 29.3121 61.1868 29.3704 61.1565 29.4366H62.1696C62.1811 29.2752 62.1614 29.1106 62.1061 28.9529Z" fill="#001A58"/>
<path d="M60.2431 31.335C60.2119 31.3996 60.1615 31.4289 60.1243 31.4414C60.1042 31.4483 60.0479 31.4536 59.9001 31.4065C59.8885 31.4029 58.9887 31.1194 58.0279 30.6568C57.0668 30.1935 56.2842 29.6674 56.2763 29.6621C56.1231 29.5521 56.1152 29.5301 56.107 29.5063C56.0968 29.4761 56.0836 29.4155 56.1156 29.348C56.1156 29.348 56.1798 29.215 56.2733 29.0223L55.5825 28.1557L55.2174 28.9153C55.0771 29.2048 55.0587 29.5317 55.1653 29.8366C55.277 30.1543 55.485 30.3229 55.707 30.4816C55.7517 30.5119 56.565 31.0601 57.5949 31.556C58.6252 32.0518 59.5609 32.3459 59.6008 32.3584C59.8062 32.4242 60.122 32.4996 60.4529 32.3844C60.7588 32.2774 61.0031 32.0584 61.143 31.768L61.5124 31.0015H60.4045L60.2431 31.335Z" fill="#001A58"/>
<path d="M69.7017 29.2864C69.7323 29.3506 69.7234 29.4089 69.7109 29.4461C69.705 29.4619 69.6767 29.51 69.544 29.5989C69.5338 29.6061 68.7511 30.1326 67.7897 30.5955C66.8279 31.0581 65.9291 31.3423 65.9202 31.3449C65.7381 31.396 65.716 31.3884 65.6927 31.3805C65.6634 31.3703 65.6064 31.3423 65.5745 31.2748C65.5745 31.2748 65.5221 31.1645 65.4434 31.0009H64.3355L64.6756 31.7068C64.8152 31.9965 65.0592 32.2152 65.3637 32.3222C65.6815 32.4334 65.9432 32.3755 66.206 32.3014C66.258 32.285 67.1931 31.9906 68.2233 31.4947C69.2536 30.9985 70.0672 30.451 70.1011 30.4276C70.2802 30.3084 70.536 30.1079 70.6529 29.7767C70.7593 29.4718 70.7408 29.1442 70.6009 28.8541L70.1827 27.9858L69.492 28.8515L69.7017 29.2864Z" fill="#001A58"/>
<path d="M68.1585 26.3669C68.1074 26.3827 67.172 26.6767 66.1418 27.1729C65.1119 27.6691 64.2986 28.217 64.2647 28.2394C64.0839 28.3602 63.8287 28.5604 63.7128 28.8906C63.65 29.0694 63.6355 29.2555 63.6585 29.4369L64.6904 29.4375C64.6736 29.4033 64.6631 29.3799 64.6631 29.3799C64.6298 29.3127 64.6436 29.2518 64.6542 29.2215C64.6608 29.2015 64.692 29.1544 64.8214 29.0678C64.8313 29.0609 65.6136 28.5347 66.5747 28.0718C67.5362 27.6088 68.4357 27.3254 68.4449 27.3231C68.626 27.2714 68.6484 27.2793 68.6718 27.2875C68.684 27.2918 68.7017 27.3003 68.7195 27.3122L69.3398 26.5355C69.2374 26.4558 69.1262 26.3893 69.0007 26.3455C68.6823 26.2342 68.4212 26.2921 68.1585 26.3669Z" fill="#001A58"/>
<path d="M74.846 20.3593C74.6745 20.086 74.4064 19.8967 74.0927 19.8246L73.3094 19.6458C73.4048 20.0652 73.4908 20.4399 73.5553 20.7254L73.8707 20.7978C73.9396 20.8133 73.9797 20.8564 74.0001 20.8894C74.0097 20.9045 74.0298 20.9559 74.0159 21.1149C74.015 21.1284 73.9392 22.0684 73.7018 23.1082C73.4641 24.1493 73.1253 25.0291 73.1217 25.038C73.0489 25.2125 73.0285 25.2244 73.0078 25.2379C72.9811 25.2547 72.9241 25.281 72.851 25.2639C72.851 25.2639 72.6749 25.224 72.4289 25.1677L71.7385 26.034L72.6281 26.2365C72.9416 26.3086 73.2652 26.254 73.5379 26.0827C73.8246 25.9026 73.9419 25.6616 74.0472 25.4104C74.0667 25.36 74.4203 24.4453 74.6738 23.3305C74.9283 22.2153 75.0073 21.2381 75.01 21.1962C75.0291 20.9822 75.0327 20.6569 74.846 20.3593Z" fill="#001A58"/>
<path d="M70.6723 24.7048C70.6611 24.6864 70.6437 24.632 70.6565 24.4773C70.6572 24.4661 70.7339 23.5261 70.971 22.4843C71.208 21.4442 71.5478 20.5651 71.5508 20.5565C71.6239 20.3823 71.6443 20.3695 71.666 20.356C71.692 20.3392 71.749 20.3135 71.8224 20.33L71.8639 20.3395C71.7948 20.0336 71.7171 19.6942 71.6361 19.3389C71.4596 19.3593 71.2887 19.4143 71.1343 19.5114C70.8485 19.6919 70.7306 19.9326 70.6256 20.1844C70.6062 20.2335 70.2529 21.1485 69.9987 22.263C69.7448 23.3786 69.6658 24.3555 69.6625 24.3966C69.6444 24.6126 69.6421 24.9366 69.8265 25.2336C69.9058 25.36 70.0079 25.4664 70.1228 25.5533L70.7484 24.77C70.7115 24.7486 70.6842 24.7232 70.6723 24.7048Z" fill="#001A58"/>
<path d="M69.9598 12.1012C70.0161 12.0561 70.0751 12.0521 70.1142 12.0567C70.131 12.0587 70.184 12.0755 70.2993 12.1851C70.3088 12.1934 70.9966 12.8394 71.6621 13.6737C72.3268 14.508 72.8036 15.3216 72.8082 15.3299C72.8833 15.4668 72.8945 15.506 72.8945 15.5301C72.8945 15.5347 72.8942 15.5389 72.8935 15.5429C72.8895 15.5742 72.8751 15.6354 72.8161 15.6822C72.8161 15.6822 72.6709 15.7984 72.4688 15.9597C72.5359 16.2548 72.6205 16.6275 72.715 17.0394L73.4381 16.4625C73.6896 16.262 73.8483 15.9752 73.8846 15.6552C73.9221 15.3193 73.8072 15.0773 73.6761 14.8383C73.6495 14.7919 73.1543 13.9453 72.4411 13.0514C71.7289 12.1575 71.0131 11.4865 70.9828 11.4585C70.8264 11.3103 70.5752 11.1055 70.2255 11.0657C69.9045 11.0294 69.5887 11.1207 69.3379 11.3212L68.7007 11.8289L69.6984 12.3089L69.9598 12.1012Z" fill="#001A58"/>
<path d="M67.4571 14.2558C67.4838 14.3019 67.9787 15.1488 68.6915 16.042C69.4047 16.9353 70.1192 17.607 70.1495 17.6353C70.3072 17.7841 70.5597 17.9886 70.9068 18.0281C71.051 18.0449 71.1932 18.0314 71.3295 17.9985C71.2518 17.6564 71.1764 17.3258 71.1083 17.0265C71.0724 17.0381 71.0401 17.0394 71.0194 17.0367C70.9986 17.0341 70.9453 17.0143 70.832 16.9073C70.8241 16.9001 70.137 16.2541 69.4712 15.4198C68.8061 14.5861 68.3297 13.7722 68.3257 13.7643C68.2345 13.5986 68.2365 13.5749 68.2398 13.5502C68.2434 13.5183 68.2585 13.458 68.3172 13.411L68.3419 13.3912L67.4199 12.9474C67.3294 13.0952 67.2678 13.2608 67.2484 13.4383C67.2109 13.7751 67.3258 14.0171 67.4571 14.2558Z" fill="#001A58"/>
<path d="M63.8284 10.3499C63.7092 10.5978 63.8133 10.8958 64.0615 11.015L69.6088 13.6872C69.8578 13.8067 70.1554 13.7027 70.2756 13.4544C70.3951 13.2058 70.2914 12.9082 70.0428 12.7887L64.4945 10.1164C64.2456 9.99689 63.9479 10.1013 63.8284 10.3499Z" fill="#001A58"/>
</g>
<defs>
<clipPath id="clip0_236_47">
<rect width="83.9993" height="42" fill="white"/>
</clipPath>
</defs>
</svg>
